<?xml version="1.0" standalone="no"?>
<!DOCTYPE svg PUBLIC "-//W3C//DTD SVG 20010904//EN"
 "http://www.w3.org/TR/2001/REC-SVG-20010904/DTD/svg10.dtd">
<svg version="1.0" xmlns="http://www.w3.org/2000/svg"
 width="100.000000pt" height="100.000000pt" viewBox="0 0 100.000000 100.000000"
 preserveAspectRatio="xMidYMid meet">
<metadata>
Created by potrace 1.11, written by Peter Selinger 2001-2013
</metadata>
<g transform="translate(0.000000,100.000000) scale(0.100000,-0.100000)"
fill="#000000" stroke="none">
<path d="M852 988 c-201 -31 -506 -214 -595 -358 -19 -31 -14 -28 42 23 165
151 432 276 541 252 56 -12 48 -68 -20 -144 -16 -18 -30 -36 -30 -38 0 -9 120
89 145 119 34 40 57 92 49 111 -5 14 -33 31 -64 39 -8 2 -39 1 -68 -4z"/>
<path d="M36 967 c-107 -79 155 -628 349 -729 21 -11 20 -10 -54 72 -71 78
-173 256 -210 366 -27 82 -32 124 -20 162 18 54 65 43 148 -32 38 -34 33 -21
-13 39 -57 73 -133 135 -167 135 -8 0 -23 -6 -33 -13z"/>
<path d="M610 757 c0 -2 20 -24 44 -50 159 -166 307 -504 248 -569 -29 -33
-68 -21 -141 46 -39 36 -33 20 17 -43 48 -59 79 -90 116 -112 41 -25 61 -24
87 4 18 19 20 30 16 87 -14 162 -139 408 -282 555 -51 53 -105 95 -105 82z"/>
<path d="M689 332 c-168 -148 -428 -264 -532 -238 -51 12 -42 60 26 141 l42
50 -41 -30 c-92 -68 -156 -138 -167 -183 -14 -60 68 -83 190 -51 156 39 394
177 492 285 43 47 79 96 69 93 -2 0 -37 -30 -79 -67z"/>
</g>
</svg>
